<svg width="27" height="27" viewBox="0 0 27 27" fill="none" xmlns="http://www.w3.org/2000/svg">
<path d="M21.3505 16.7263C20.7969 16.1508 20.1292 15.843 19.4215 15.843C18.7196 15.843 18.0462 16.1451 17.4698 16.7206L15.6663 18.5157C15.518 18.4359 15.3696 18.3618 15.2269 18.2877C15.0215 18.1851 14.8274 18.0883 14.6619 17.9857C12.9726 16.9144 11.4375 15.5182 9.96506 13.7118C9.25169 12.8114 8.7723 12.0535 8.42418 11.2842C8.89215 10.8568 9.32588 10.4123 9.7482 9.98494C9.90799 9.82538 10.0678 9.66013 10.2276 9.50057C11.4261 8.30387 11.4261 6.75387 10.2276 5.55718L8.66958 4.00148C8.49266 3.82482 8.31003 3.64247 8.13883 3.46011C7.79641 3.1068 7.43687 2.7421 7.06591 2.40019C6.51233 1.85313 5.85032 1.5625 5.15407 1.5625C4.45782 1.5625 3.78439 1.85313 3.21369 2.40019C3.20798 2.40588 3.20798 2.40588 3.20228 2.41158L1.2619 4.36618C0.531406 5.0956 0.114795 5.98457 0.0234834 7.016C-0.113484 8.67998 0.377317 10.23 0.753978 11.2443C1.67851 13.7346 3.0596 16.0425 5.11983 18.5157C7.61949 21.496 10.6271 23.8495 14.0627 25.5078C15.3753 26.1289 17.1273 26.864 19.0848 26.9894C19.2047 26.9951 19.3302 27.0008 19.4444 27.0008C20.7627 27.0008 21.8698 26.5278 22.7373 25.5876C22.743 25.5762 22.7544 25.5705 22.7601 25.5591C23.0569 25.2001 23.3993 24.8752 23.7589 24.5276C24.0043 24.294 24.2554 24.0489 24.5008 23.7925C25.0658 23.2056 25.3625 22.5217 25.3625 21.8208C25.3625 21.1142 25.0601 20.4361 24.4836 19.8662L21.3505 16.7263ZM23.3936 22.7269C23.3879 22.7269 23.3879 22.7326 23.3936 22.7269C23.171 22.9662 22.9428 23.1828 22.6974 23.4221C22.3264 23.7754 21.9497 24.1458 21.5959 24.5618C21.0195 25.1773 20.3404 25.4679 19.4501 25.4679C19.3645 25.4679 19.2732 25.4679 19.1876 25.4622C17.4926 25.3539 15.9175 24.6929 14.7361 24.1287C11.506 22.5673 8.66958 20.3506 6.31259 17.5412C4.3665 15.1991 3.06531 13.0337 2.20355 10.7087C1.6728 9.28972 1.47877 8.18421 1.56437 7.14137C1.62144 6.47464 1.87826 5.92188 2.35194 5.44891L4.29802 3.5057C4.57766 3.24357 4.87443 3.10111 5.16548 3.10111C5.52502 3.10111 5.81608 3.31765 5.9987 3.5C6.00441 3.5057 6.01012 3.5114 6.01582 3.5171C6.36395 3.84192 6.69496 4.17813 7.04308 4.53714C7.22 4.71949 7.40262 4.90185 7.58525 5.0899L9.14326 6.6456C9.7482 7.24964 9.7482 7.8081 9.14326 8.41215C8.97775 8.5774 8.81796 8.74266 8.65245 8.90222C8.17307 9.3923 7.71651 9.84818 7.22 10.2927C7.20859 10.3041 7.19717 10.3098 7.19147 10.3212C6.70066 10.8112 6.79198 11.2899 6.8947 11.6147C6.90041 11.6318 6.90612 11.6489 6.91182 11.666C7.31702 12.6462 7.88772 13.5693 8.75518 14.6691L8.76089 14.6748C10.336 16.6123 11.9968 18.1225 13.8287 19.2793C14.0627 19.4274 14.3024 19.5471 14.5307 19.6611C14.7361 19.7636 14.9301 19.8605 15.0956 19.9631C15.1185 19.9745 15.1413 19.9916 15.1641 20.003C15.3582 20.0999 15.5408 20.1454 15.7291 20.1454C16.2028 20.1454 16.4996 19.8491 16.5966 19.7522L18.5484 17.8033C18.7424 17.6096 19.0506 17.376 19.4101 17.376C19.764 17.376 20.055 17.5982 20.2319 17.7919C20.2376 17.7976 20.2376 17.7976 20.2434 17.8033L23.3879 20.9432C23.9757 21.5245 23.9757 22.1228 23.3936 22.7269Z" fill="#6D7A84"/>
<path d="M14.5951 6.4226C16.0903 6.67333 17.4486 7.37995 18.5329 8.46267C19.6173 9.5454 20.3192 10.9016 20.576 12.3947C20.6388 12.7708 20.9641 13.0329 21.3351 13.0329C21.3807 13.0329 21.4207 13.0272 21.4663 13.0215C21.8886 12.9531 22.1683 12.5542 22.0998 12.1325C21.7916 10.3261 20.9356 8.67922 19.6287 7.37425C18.3218 6.06929 16.6725 5.21451 14.8633 4.90678C14.441 4.8384 14.0472 5.11763 13.973 5.53362C13.8989 5.94962 14.1728 6.35421 14.5951 6.4226Z" fill="#DA000F"/>
<path d="M26.9869 11.9103C26.4789 8.93564 25.075 6.22884 22.9178 4.07479C20.7605 1.92074 18.0497 0.518899 15.0707 0.0117284C14.6541 -0.0623526 14.2603 0.222575 14.1861 0.638568C14.1176 1.06026 14.3972 1.45346 14.8196 1.52754C17.479 1.97773 19.9045 3.2371 21.8335 5.15751C23.7624 7.08362 25.018 9.5055 25.4688 12.161C25.5316 12.5371 25.8569 12.7993 26.2278 12.7993C26.2735 12.7993 26.3134 12.7936 26.3591 12.7879C26.7757 12.7252 27.0611 12.3263 26.9869 11.9103Z" fill="#DA000F"/>
</svg>
